<?xml version="1.0" encoding="utf-8"?>
<!-- Generator: Adobe Illustrator 27.5.0, SVG Export Plug-In . SVG Version: 6.00 Build 0)  -->
<svg version="1.1" xmlns="http://www.w3.org/2000/svg" xmlns:xlink="http://www.w3.org/1999/xlink" x="0px" y="0px"
	 viewBox="2399.047 -1875.171 4554.651 3588.58" style="enable-background:new 2399.047 -1875.171 4554.651 3588.58;"
	 xml:space="preserve">
<g id="Layer_1">
</g>
<g id="Layer_2">
</g>
<g id="Dimensions">
	<rect x="2399.047" y="-1875.171" style="fill:#FFFFFF;" width="4554.651" height="3588.58"/>
	<g id="Layer_x5F_1">
		<path style="fill-rule:evenodd;clip-rule:evenodd;fill:#FF0000;" d="M4703.022-446.921c6.059-33.012,59.831-66.412,106.2-95.216
			c-99.872,28.341-198.864,68.397-243.308,114.766c-71.278,74.367,202.759,185.313,311.422,227.205
			c247.308,95.32,689.525,309.795,490.646,562.132c-274.962,348.867-1258.537,88.799-1407.808-89.784
			c-60.189-72.009-6.089-142.899,85.59-175.045c91.709-32.161,109.29,0.985,44.922,42.996
			c-202.998,132.467,381.192,99.902,447.172,95.171c715.507-51.249,34.415-239.831-161.121-404.772
			c-138.436-116.766-102.977-256.844,118.289-373.058c125.005-65.651,491.138-197.327,637.186-138.824
			c209.281,83.844-447.933,336.569-429.188,234.413V-446.921z"/>
		<path style="fill-rule:evenodd;clip-rule:evenodd;fill:#841010;" d="M4474.847-102.144
			c338.763,212.684,75.382,332.137-228.787,344.718c122.766,2.88,264.097-5.358,291.812-7.253
			C5141.762,194.19,4749.182,50.441,4474.847-102.144z"/>
	</g>
</g>
<g id="Layer_4">
</g>
</svg>
